<svg id="Layer_1" data-name="Layer 1" xmlns="http://www.w3.org/2000/svg" viewBox="0 0 1920 1080"><defs><style>.cls-1{fill:green;}</style></defs><path class="cls-1" d="M679.27,524.86c0-.39-.08-.78-.1-1.22-.11-1.65-.2-3.3-.29-4.95l0-.34c-.19-3.52-.38-7.16-.73-10.82a52.35,52.35,0,0,0-1.67-8.93c0-.11-.08-.24-.13-.37a35,35,0,0,0-3.58-8.09c-4-6.46-10.06-10.89-18-13.14-.21-.07-.42-.12-.64-.17a63.66,63.66,0,0,0-13-2.05c-2.7-.16-5.44-.27-8.1-.38l-3.09-.12-.69,0-.55-.14H580.38l-1.09.08-.65.06a143.35,143.35,0,0,0-17.5,1.19c-1.8.26-3.44.56-5.08.92l-.17.05a36.58,36.58,0,0,0-9.92,3.78c-6.89,3.95-11.57,10.14-13.9,18.35-.32,1-.6,2.16-.92,3.59l-.09.39a58.42,58.42,0,0,0-1.25,9.83c-.15,3.61-.29,7.57-.42,12.16l0,.68v54.16c0,.08,0,.15,0,.23,0,1,.09,2,.14,2.93.2,3.58.51,6.72.94,9.7.16,1.15.36,2.37.65,3.84a37,37,0,0,0,4.14,11.45c3.94,6.88,10.15,11.55,18.41,13.87.41.12.84.24,1.28.35l.6.33h.69a60.42,60.42,0,0,0,11.21,1.57c9.48.37,17.17.58,24.2.64,4.42,0,8.91,0,13.25,0,7.07,0,14.25,0,21.19-.09h.21a148.12,148.12,0,0,0,21-1.26,57.68,57.68,0,0,0,6.79-1.35l1.43-.39.25-.25A39.74,39.74,0,0,0,676,600.88l.43-1.07v-.19a64.38,64.38,0,0,0,2.17-13.41c.22-3.23.34-6.48.45-9.62l.09-2.37c0-.21.08-.41.1-.62l0-48.23ZM604.89,614.3c-4.32,0-8.78,0-13.15,0-6.93-.06-14.53-.26-23.88-.64a49.37,49.37,0,0,1-9.6-1.37l-.52-.14c-.41-.09-.86-.21-1.33-.35-5.77-1.62-9.86-4.64-12.5-9.25a27.45,27.45,0,0,1-3-8.42c-.25-1.25-.42-2.28-.55-3.27a108,108,0,0,1-1-11.51V525.48c.13-4.79.27-9,.43-12.69a49,49,0,0,1,1-7.93l.1-.37c.27-1.29.51-2.24.78-3.15,1.64-5.75,4.67-9.83,9.28-12.47a26.88,26.88,0,0,1,7.08-2.69l.48-.12c1.27-.27,2.6-.51,4.07-.72a136.55,136.55,0,0,1,16.38-1.1c.46,0,.92-.06,1.35-.1l.31,0h46.83a5.52,5.52,0,0,0,.91.11l.59,0,.43,0,3.25.13c2.59.1,5.27.2,7.84.36a54.41,54.41,0,0,1,11.2,1.78l.36.09c5.56,1.57,9.55,4.43,12.2,8.74a24.43,24.43,0,0,1,2.59,5.94l.11.31a40.76,40.76,0,0,1,1.26,6.88c.32,3.43.51,7,.7,10.44.1,1.78.19,3.56.3,5.27,0,.45.07.92.11,1.4v46.95c0,.18-.06.37-.08.54l-.13,3.12c-.11,3.07-.23,6.24-.44,9.33a55.08,55.08,0,0,1-1.82,11.39v.1a29.81,29.81,0,0,1-14.93,14.7l-1,0-.46.46c-1.31.31-2.78.58-4.56.84a140.66,140.66,0,0,1-19.59,1.15C619.59,614.25,612.08,614.3,604.89,614.3Z"/><path class="cls-1" d="M529.17,536.16c0-3.56.09-7.2.2-10.81v54c-.09-2.33-.15-4.83-.18-8.06C529.11,558.24,529.08,547.27,529.17,536.16Z"/><path class="cls-1" d="M529.52,582.51h0l-.12-2.93C529.42,580.59,529.47,581.57,529.52,582.51Z"/><path class="cls-1" d="M637.56,602.82l-.57-.37a106.9,106.9,0,0,0-10.62-6.28,52.4,52.4,0,0,0-7.61-3.21,27.69,27.69,0,0,0-9.24-1.49,22.68,22.68,0,0,0-7.92,1.63,31.66,31.66,0,0,0-5.44,2.92c-2.14,1.39-4.26,2.82-6.41,4.19a23.32,23.32,0,0,1-5.43,2.64,9.82,9.82,0,0,1-8-.6,10,10,0,0,1-4.5-5.06A10.9,10.9,0,0,1,576.22,583a24,24,0,0,1,6.61-2.73,51.31,51.31,0,0,1,8.24-1.44,46.13,46.13,0,0,1,6.75-.17,43.47,43.47,0,0,1,11.95,2.25,46.86,46.86,0,0,1,12.45,6.28,50.17,50.17,0,0,1,7.9,7.09c2.13,2.34,4.2,4.74,6.3,7.12l1.18,1.33Zm-13.23-11.14-.36-.33a42,42,0,0,0-10.16-6.5,42.87,42.87,0,0,0-15.43-4,47,47,0,0,0-16,1.78,18.28,18.28,0,0,0-5.91,2.77,7.92,7.92,0,0,0-2.76,3.31,9.11,9.11,0,0,0,1.28,9.61,7.19,7.19,0,0,0,7.71,2.68,16.89,16.89,0,0,0,4.37-1.76c2-1.09,3.85-2.39,5.74-3.65a48.41,48.41,0,0,1,6.91-4.08,24.84,24.84,0,0,1,13.55-2,37,37,0,0,1,8.84,2.37c.54.21,1.07.44,1.64.67Z"/><path class="cls-1" d="M580.87,603.66a9.46,9.46,0,0,1-4.64-1.19,10.37,10.37,0,0,1-4.62-5.18,11.42,11.42,0,0,1,.52-10.58,11.15,11.15,0,0,1,4-3.89,23.89,23.89,0,0,1,6.69-2.76,50.72,50.72,0,0,1,8.27-1.45,46.81,46.81,0,0,1,6.8-.17,44,44,0,0,1,12,2.26A47.7,47.7,0,0,1,622.36,587a50.23,50.23,0,0,1,7.95,7.13c1.47,1.62,2.94,3.29,4.35,4.91l2,2.21,1.31,1.49-.26.35-.24-.07-.57-.38a106.09,106.09,0,0,0-10.59-6.26,52.33,52.33,0,0,0-7.58-3.19,27.37,27.37,0,0,0-9.16-1.48,22.57,22.57,0,0,0-7.82,1.61,31.27,31.27,0,0,0-5.4,2.9l-2.74,1.8-3.68,2.39a23.44,23.44,0,0,1-5.48,2.67A11.82,11.82,0,0,1,580.87,603.66Zm14.78-24.77c-1.52,0-3,.07-4.56.22a50.64,50.64,0,0,0-8.19,1.43,23.61,23.61,0,0,0-6.55,2.7,10.72,10.72,0,0,0-3.79,3.72,10.93,10.93,0,0,0-.48,10.14,9.82,9.82,0,0,0,4.39,4.93,9.46,9.46,0,0,0,7.78.58,22.42,22.42,0,0,0,5.36-2.61q1.85-1.18,3.67-2.39l2.75-1.8a32.53,32.53,0,0,1,5.48-2.95,23.14,23.14,0,0,1,8-1.64,28.05,28.05,0,0,1,9.32,1.5,53.88,53.88,0,0,1,7.66,3.22,104.21,104.21,0,0,1,9.86,5.79l-.12-.14c-.65-.73-1.29-1.47-1.94-2.21-1.42-1.61-2.88-3.28-4.35-4.9a50.17,50.17,0,0,0-7.87-7.06,47.18,47.18,0,0,0-12.38-6.25,43.77,43.77,0,0,0-11.88-2.23C597.09,578.9,596.37,578.89,595.65,578.89Zm41.9,23.92h0ZM580.8,601.5a7.33,7.33,0,0,1-6-3,9.33,9.33,0,0,1-1.31-9.86,8.24,8.24,0,0,1,2.84-3.41,18.16,18.16,0,0,1,6-2.81,47.71,47.71,0,0,1,16-1.79,43.46,43.46,0,0,1,15.52,4,42.59,42.59,0,0,1,10.21,6.54l.24.21.28.27-.74,1.23-.77-.31-1.07-.44a36.6,36.6,0,0,0-8.78-2.35,24.64,24.64,0,0,0-13.42,2,48.76,48.76,0,0,0-6.87,4.05l-1,.66c-1.53,1-3.12,2.1-4.79,3a16.81,16.81,0,0,1-4.43,1.78A9.45,9.45,0,0,1,580.8,601.5ZM595.58,581a47.52,47.52,0,0,0-13.08,1.86,17.93,17.93,0,0,0-5.83,2.73,7.67,7.67,0,0,0-2.67,3.2,8.84,8.84,0,0,0,1.23,9.37,7,7,0,0,0,7.46,2.59,16.81,16.81,0,0,0,4.31-1.74c1.64-.9,3.22-2,4.74-3l1-.65a49.18,49.18,0,0,1,6.94-4.09,25.2,25.2,0,0,1,13.7-2.05,37.23,37.23,0,0,1,8.89,2.39l1.08.44.37.14.31-.51-.2-.19a42.07,42.07,0,0,0-10.1-6.47,43.29,43.29,0,0,0-15.34-3.94Q597,581,595.58,581Z"/><path class="cls-1" d="M590,584.78l2.85,6.6.68-.26A1.56,1.56,0,0,1,594,591a.41.41,0,0,1,.3.14s0,.18-.1.26-.11.07-.17.09a55.52,55.52,0,0,0-7.4,4.08c-1,.62-2.09,1.23-3.15,1.81a5.52,5.52,0,0,1-2,.71,4.28,4.28,0,0,1-3.67-1.26,5.34,5.34,0,0,1-.57-6.95,6.69,6.69,0,0,1,2.1-1.67,30.43,30.43,0,0,1,5.65-2.37c1.85-.6,3.71-1.13,5.57-1.68.2-.06.47-.21.57.09s-.22.31-.41.38Zm-9.15,3.7a3.91,3.91,0,0,0-2.28.7,4.5,4.5,0,0,0-1.78,5.12c.7,2.4,3,4.09,5.75,2.92a4.58,4.58,0,0,0,2.8-5A4.53,4.53,0,0,0,580.89,588.48Zm7.18,5.56-.76-1.76q-1.17-2.74-2.35-5.51c-.17-.39-.18-.4-.58-.25-1,.4-2.09.81-3.12,1.22a4.27,4.27,0,0,0-.39.21,5,5,0,0,1,4.47,2.68,5.29,5.29,0,0,1-.13,5.17Zm-2.81-7.83,3.24,7.56,1.73-1-3.07-7.15Zm5.41,6.31,1.77-.93-2.89-6.69-1.91.57Z"/><path class="cls-1" d="M580.72,599.6a7.79,7.79,0,0,0,3.11-.8,46,46,0,0,0,5-2.69l6.46-3.74.12-.07c.15-.08.32-.13.42,0s0,.32-.2.41c-.49.27-1,.53-1.49.81-2.43,1.43-4.85,2.87-7.29,4.28a20,20,0,0,1-4.29,2,6,6,0,0,1-6.14-1.4,7.24,7.24,0,0,1-2-3.45,7,7,0,0,1,2.52-7.71,21.88,21.88,0,0,1,6.2-3.16,58,58,0,0,1,7.56-1.89l.56-.1c.18,0,.37-.05.4.19s-.13.26-.3.29l-1.81.36a47.93,47.93,0,0,0-7,1.9,21.45,21.45,0,0,0-5.13,2.68,6.57,6.57,0,0,0-2.35,7.77,6.64,6.64,0,0,0,2.45,3.33A5.35,5.35,0,0,0,580.72,599.6Z"/><path class="cls-1" d="M597,582.25a4.19,4.19,0,1,1-4.14,4.21A4.14,4.14,0,0,1,597,582.25Zm-3.63,4.22a3.66,3.66,0,1,0,3.56-3.73A3.67,3.67,0,0,0,593.32,586.47Z"/><path class="cls-1" d="M614.31,586.7a6.26,6.26,0,0,1,.67-.46c.1,0,.25,0,.37,0s0,.28-.09.36a5.93,5.93,0,0,1-.65.51l.81.15c.16,0,.28.1.25.28s-.16.22-.32.2l-.82-.1c.17.23.29.39.4.56s.28.32.07.49-.35-.06-.48-.21-.23-.29-.4-.52a7.81,7.81,0,0,1-.14.81c0,.11-.18.18-.27.27-.07-.11-.19-.21-.19-.32a5.36,5.36,0,0,1,.08-.82l-.65.46c-.13.09-.26.14-.38,0s-.05-.29.08-.4l.63-.49-.71-.12c-.18,0-.37-.08-.34-.31s.21-.22.4-.2l.73.1-.45-.64c-.1-.13-.18-.29,0-.41s.3,0,.4.1l.48.63c.05-.31.09-.54.12-.76s.09-.32.3-.3.2.2.19.37S614.34,586.4,614.31,586.7Z"/><path class="cls-1" d="M602.32,585.55l3,.43,5,.73c.2,0,.52,0,.47.32s-.35.19-.55.16l-5.65-.8-2.15-.31-.18,0c-.18,0-.34-.1-.28-.3S602.26,585.6,602.32,585.55Z"/><path class="cls-1" d="M610.94,585.68c0,.2-.19.28-.43.19l-1.81-.68-5.15-2a1.19,1.19,0,0,1-.34-.16.4.4,0,0,1-.14-.29.42.42,0,0,1,.3-.15c.1,0,.2.07.31.11l6.86,2.65C610.71,585.42,610.92,585.46,610.94,585.68Z"/><path class="cls-1" d="M603.37,589.1c-.24,0-.44,0-.44-.22s.19-.25.37-.27l3.84-.47,3.14-.37c.2,0,.46-.14.57.16s-.11.3-.51.34l-6,.72Z"/><path class="cls-1" d="M617.65,588.52l.29.14,5.17,2.64.08.05c.17.09.37.19.24.42s-.3.11-.45,0l-5.3-2.72a.41.41,0,0,1-.19-.12.36.36,0,0,1-.07-.25C617.46,588.62,617.57,588.58,617.65,588.52Z"/><path class="cls-1" d="M581,589.37a3.63,3.63,0,1,1-3.62,3.59A3.61,3.61,0,0,1,581,589.37Zm-.07,6.74a3.12,3.12,0,1,0-3.06-3.13A3.1,3.1,0,0,0,580.93,596.11Z"/><path class="cls-1" d="M593.89,586.43a3.09,3.09,0,1,1,3.07,3.13A3.09,3.09,0,0,1,593.89,586.43Zm5.66.12a2.31,2.31,0,0,0-.37-1.46l-1.47,1.11,0,.09Zm-.67-1.87a2,2,0,0,0-1.3-.74l-.25,1.8.09,0Zm-2.6,1.4.06-.08-1.1-1.48a1.83,1.83,0,0,0-.71,1.31Zm0,.61,0-.11-1.8-.25a2.15,2.15,0,0,0,.37,1.45Zm1.31.09,1.18,1.58a2.42,2.42,0,0,0,.76-1.3Zm-2.44,1.39a1.89,1.89,0,0,0,1.26.77l.28-1.93Zm2.11-1-.09,0-.26,1.79a1.79,1.79,0,0,0,1.43-.36Zm-.48-1.51.11,0,.24-1.79a1.65,1.65,0,0,0-1.4.41Z"/><path class="cls-1" d="M581.61,593.44l.83,1.14a2.56,2.56,0,0,1,.2.26c.11.15.2.32,0,.45s-.29,0-.39-.15l-1.11-1.48c-.07.39-.12.69-.17,1s-.07.59-.12.89-.11.33-.3.26a.39.39,0,0,1-.17-.33c0-.42.1-.84.16-1.26,0-.17,0-.34.07-.62l-.73.54c-.27.2-.52.41-.8.58a.37.37,0,0,1-.37,0c-.14-.13-.05-.28.09-.39l.94-.71.56-.45L579,593a3.88,3.88,0,0,1-.61-.1c-.09,0-.22-.16-.22-.25s.13-.24.29-.22l1.13.15.8.1c-.38-.51-.7-.93-1-1.36-.12-.17-.37-.36-.11-.56s.39.1.51.26c.32.41.63.84,1,1.36.09-.63.17-1.15.25-1.67,0-.21,0-.53.3-.5s.2.37.18.58c-.06.51-.14,1-.23,1.66l.86-.64.6-.45c.15-.11.3-.24.45-.05s0,.34-.16.46l-1,.74-.45.35,1.49.24a1.77,1.77,0,0,1,.46.08c.09,0,.2.2.18.27a.36.36,0,0,1-.27.19c-.29,0-.59-.07-.89-.11l-.93-.14Z"/><path class="cls-1" d="M550.59,582.56,551,582a105.76,105.76,0,0,0,6.28-10.62,52.4,52.4,0,0,0,3.21-7.61,27.65,27.65,0,0,0,1.49-9.24,22.79,22.79,0,0,0-1.62-7.91,32.12,32.12,0,0,0-2.93-5.45c-1.39-2.14-2.82-4.26-4.19-6.41a23.73,23.73,0,0,1-2.64-5.43,9.82,9.82,0,0,1,.6-8,10.1,10.1,0,0,1,5.06-4.5,10.89,10.89,0,0,1,14.16,4.37,23.67,23.67,0,0,1,2.73,6.62,51,51,0,0,1,1.44,8.23,46.23,46.23,0,0,1,.17,6.76,43.4,43.4,0,0,1-2.25,11.94,46.86,46.86,0,0,1-6.28,12.45,49.73,49.73,0,0,1-7.09,7.9c-2.34,2.13-4.74,4.2-7.12,6.3l-1.33,1.18Zm11.14-13.23c.12-.13.23-.24.33-.36a41.84,41.84,0,0,0,6.5-10.16,42.87,42.87,0,0,0,4-15.43,46.93,46.93,0,0,0-1.78-15.94,18.24,18.24,0,0,0-2.77-5.92,7.93,7.93,0,0,0-3.3-2.75,9.1,9.1,0,0,0-9.62,1.27,7.19,7.19,0,0,0-2.68,7.71,16.75,16.75,0,0,0,1.76,4.37c1.09,2,2.39,3.85,3.65,5.74a49,49,0,0,1,4.08,6.91,24.78,24.78,0,0,1,2,13.56,36.61,36.61,0,0,1-2.37,8.83c-.21.54-.44,1.08-.67,1.64Z"/><path class="cls-1" d="M550.66,582.93l-.42-.3.52-.78A106.09,106.09,0,0,0,557,571.26a52.33,52.33,0,0,0,3.19-7.58,27.37,27.37,0,0,0,1.48-9.16,22.57,22.57,0,0,0-1.61-7.82,31.27,31.27,0,0,0-2.9-5.4l-1.78-2.72c-.81-1.23-1.62-2.46-2.41-3.7a23.25,23.25,0,0,1-2.67-5.48,10.11,10.11,0,0,1,.62-8.17,10.35,10.35,0,0,1,5.18-4.61,11.39,11.39,0,0,1,10.58.51,11.1,11.1,0,0,1,3.89,4,23.69,23.69,0,0,1,2.76,6.68A50.53,50.53,0,0,1,574.8,536a46.88,46.88,0,0,1,.17,6.8,44,44,0,0,1-2.26,12,47.92,47.92,0,0,1-6.31,12.52,50.61,50.61,0,0,1-7.13,7.94c-1.62,1.47-3.29,2.93-4.9,4.35l-2.22,2ZM561,516.06a11.9,11.9,0,0,0-4.7,1,9.8,9.8,0,0,0-4.94,4.39,9.46,9.46,0,0,0-.58,7.78,22.65,22.65,0,0,0,2.61,5.37c.79,1.23,1.6,2.46,2.41,3.68L557.6,541a32.15,32.15,0,0,1,2.95,5.48,23.14,23.14,0,0,1,1.64,8,28.15,28.15,0,0,1-1.5,9.33,53.79,53.79,0,0,1-3.22,7.65,102.1,102.1,0,0,1-5.79,9.86l.14-.12,2.22-2c1.61-1.41,3.28-2.87,4.89-4.34a49.67,49.67,0,0,0,7.06-7.87,46.88,46.88,0,0,0,6.25-12.38,43.39,43.39,0,0,0,2.23-11.88,45.79,45.79,0,0,0-.17-6.72,50.64,50.64,0,0,0-1.43-8.19,23.61,23.61,0,0,0-2.7-6.55,10.54,10.54,0,0,0-9.15-5.29Zm.75,53.59-1.23-.74.3-.74c.16-.38.3-.74.45-1.1a36.6,36.6,0,0,0,2.35-8.78,24.66,24.66,0,0,0-2-13.42,49.33,49.33,0,0,0-4-6.87l-.66-1c-1-1.53-2.1-3.12-3-4.78a17,17,0,0,1-1.78-4.44,7.47,7.47,0,0,1,2.77-8,9.3,9.3,0,0,1,9.86-1.3,8.14,8.14,0,0,1,3.41,2.83,18.26,18.26,0,0,1,2.81,6,47.45,47.45,0,0,1,1.79,16,43.46,43.46,0,0,1-4,15.52,42.59,42.59,0,0,1-6.54,10.21l-.22.24Zm-.6-.95.52.31.19-.2a42.15,42.15,0,0,0,6.46-10.1,43.07,43.07,0,0,0,3.94-15.34,47,47,0,0,0-1.77-15.86,17.89,17.89,0,0,0-2.73-5.84,7.67,7.67,0,0,0-3.2-2.67,8.81,8.81,0,0,0-9.36,1.24,6.93,6.93,0,0,0-2.6,7.46,16.89,16.89,0,0,0,1.74,4.3c.9,1.64,2,3.22,3,4.75l.65,1a49.18,49.18,0,0,1,4.09,6.94,25.2,25.2,0,0,1,2,13.7,37.23,37.23,0,0,1-2.39,8.89c-.14.37-.29.73-.44,1.1Z"/><path class="cls-1" d="M568.63,535,562,537.9c.09.24.18.45.26.67a1.56,1.56,0,0,1,.15.39.41.41,0,0,1-.14.3s-.18,0-.26-.1-.07-.11-.09-.17a55.52,55.52,0,0,0-4.08-7.4c-.62-1-1.23-2.09-1.81-3.15a5.46,5.46,0,0,1-.71-2,4.28,4.28,0,0,1,1.26-3.67,5.34,5.34,0,0,1,6.95-.56,6.54,6.54,0,0,1,1.67,2.09,30.52,30.52,0,0,1,2.37,5.66c.6,1.84,1.13,3.7,1.68,5.56.06.2.21.47-.09.57s-.31-.22-.38-.41S568.7,535.28,568.63,535Zm-3.7-9.15a3.93,3.93,0,0,0-.7-2.28,4.5,4.5,0,0,0-5.12-1.78c-2.4.7-4.09,3-2.92,5.75a4.57,4.57,0,0,0,5,2.8A4.52,4.52,0,0,0,564.93,525.89Zm-5.56,7.18,1.76-.75,5.51-2.36c.39-.17.4-.18.25-.58-.4-1-.81-2.08-1.22-3.12a4.27,4.27,0,0,0-.21-.39,5,5,0,0,1-2.68,4.47,5.29,5.29,0,0,1-5.17-.13Zm7.83-2.81-7.56,3.24,1,1.74,7.15-3.08Zm-6.31,5.41.93,1.78,6.69-2.9-.57-1.9Z"/><path class="cls-1" d="M553.81,525.72a7.88,7.88,0,0,0,.8,3.12,46.83,46.83,0,0,0,2.69,5c1.26,2.15,2.49,4.31,3.74,6.46a.83.83,0,0,0,.08.12c.07.15.12.32,0,.42s-.32,0-.41-.19c-.27-.5-.53-1-.81-1.49-1.43-2.44-2.87-4.86-4.28-7.3a20,20,0,0,1-2-4.29,6,6,0,0,1,1.4-6.13,7.22,7.22,0,0,1,3.45-2,7,7,0,0,1,7.71,2.52,22.07,22.07,0,0,1,3.16,6.21,57.48,57.48,0,0,1,1.89,7.55c0,.19.07.37.1.56s0,.38-.19.41-.26-.14-.29-.31l-.36-1.81a47.46,47.46,0,0,0-1.9-7,21.08,21.08,0,0,0-2.68-5.13,6.92,6.92,0,0,0-11.1.1A5.38,5.38,0,0,0,553.81,525.72Z"/><path class="cls-1" d="M571.16,542a4.19,4.19,0,1,1-4.21-4.14A4.15,4.15,0,0,1,571.16,542Zm-4.22-3.63a3.66,3.66,0,1,0,3.73,3.56A3.67,3.67,0,0,0,566.94,538.32Z"/><path class="cls-1" d="M566.71,559.31a6.26,6.26,0,0,1,.46.67c.05.1,0,.25,0,.37s-.28,0-.36-.09a6.8,6.8,0,0,1-.51-.64c-.06.33-.1.57-.15.81s-.1.27-.28.24-.22-.16-.2-.32l.1-.82c-.23.17-.39.29-.56.4s-.32.29-.49.07.06-.35.21-.48.29-.23.52-.4a7.81,7.81,0,0,1-.81-.14c-.11,0-.18-.18-.27-.27.11-.07.21-.19.32-.19a5.36,5.36,0,0,1,.82.08L565,558c-.09-.13-.14-.26,0-.38s.29-.05.4.08.29.37.49.64c.05-.3.09-.51.12-.72s.08-.37.31-.34.23.22.2.4-.06.43-.1.73l.64-.45c.13-.09.29-.17.41,0s0,.3-.1.4l-.63.48.77.13c.16,0,.32.08.29.29s-.2.2-.37.19Z"/><path class="cls-1" d="M567.86,547.32c-.15,1.08-.29,2.06-.43,3-.24,1.68-.48,3.36-.73,5,0,.2,0,.52-.31.47s-.2-.35-.17-.55q.39-2.82.8-5.65c.1-.71.2-1.43.31-2.14a1.37,1.37,0,0,0,0-.19c0-.17.1-.34.3-.28S567.82,547.27,567.86,547.32Z"/><path class="cls-1" d="M567.73,555.94c-.2,0-.28-.18-.19-.43.22-.61.45-1.21.68-1.81.67-1.72,1.33-3.43,2-5.15a1.19,1.19,0,0,1,.16-.34c.07-.08.22-.16.29-.13s.14.18.15.29-.07.21-.11.31q-1.32,3.44-2.65,6.86C568,555.72,568,555.92,567.73,555.94Z"/><path class="cls-1" d="M564.31,548.37c0-.24,0-.44.22-.44s.25.19.27.37c.16,1.28.31,2.56.47,3.84.12,1.05.25,2.09.37,3.14,0,.2.14.46-.16.57s-.29-.11-.34-.51l-.72-6C564.38,549,564.34,548.66,564.31,548.37Z"/><path class="cls-1" d="M564.89,562.65a2.64,2.64,0,0,1-.14.29l-2.64,5.17a.56.56,0,0,1-.05.08c-.09.17-.19.37-.42.24s-.11-.3,0-.45c.9-1.77,1.81-3.53,2.72-5.3a.41.41,0,0,1,.12-.19.3.3,0,0,1,.25-.06C564.79,562.46,564.83,562.57,564.89,562.65Z"/><path class="cls-1" d="M564,526a3.63,3.63,0,1,1-3.59-3.62A3.61,3.61,0,0,1,564,526Zm-6.74-.07a3.12,3.12,0,1,0,3.14-3.06A3.1,3.1,0,0,0,557.3,525.93Z"/><path class="cls-1" d="M567,538.89a3.09,3.09,0,1,1-3.13,3.07A3.09,3.09,0,0,1,567,538.89Zm-.12,5.66a2.31,2.31,0,0,0,1.46-.37l-1.11-1.46-.09,0Zm1.87-.66a2.08,2.08,0,0,0,.74-1.31l-1.8-.25,0,.09Zm-1.4-2.61.08.06,1.48-1.1a1.78,1.78,0,0,0-1.31-.7Zm-.6,0,.1,0,.25-1.8a2.2,2.2,0,0,0-1.45.37Zm-.1,1.31-1.58,1.18a2.51,2.51,0,0,0,1.3.77Zm-1.39-2.44a1.88,1.88,0,0,0-.77,1.27l1.93.27Zm1,2.12,0-.09-1.79-.26a1.76,1.76,0,0,0,.36,1.42Zm1.51-.49,0,.11,1.79.24a1.66,1.66,0,0,0-.41-1.4Z"/><path class="cls-1" d="M560,526.61l-1.14.84-.26.19c-.15.11-.32.2-.45,0s0-.29.15-.39l1.48-1.11-1-.16-.88-.13c-.18,0-.34-.11-.27-.3a.39.39,0,0,1,.33-.17c.42,0,.84.1,1.26.16l.62.07-.54-.73a9,9,0,0,1-.58-.8.37.37,0,0,1,0-.37c.13-.14.28-.05.39.09l.71.94.45.56c.07-.49.14-.9.2-1.3a3.88,3.88,0,0,1,.1-.61.39.39,0,0,1,.25-.22c.17,0,.24.13.22.29l-.15,1.13c0,.23-.06.46-.1.8l1.36-1c.17-.12.36-.37.56-.1s-.1.38-.26.5c-.41.33-.84.64-1.36,1l1.67.25c.21,0,.53,0,.5.3s-.37.2-.58.18l-1.66-.22.64.85.45.61c.11.14.24.3,0,.45s-.34,0-.46-.17c-.25-.32-.5-.65-.74-1l-.35-.45c-.09.55-.16,1-.23,1.49a2.34,2.34,0,0,1-.09.46c0,.09-.2.2-.27.18a.35.35,0,0,1-.19-.27c0-.29.07-.59.11-.89s.09-.61.14-.92Z"/><path class="cls-1" d="M570.85,495.59l.57.38A105.68,105.68,0,0,0,582,502.24a52.4,52.4,0,0,0,7.61,3.21,27.92,27.92,0,0,0,9.24,1.5,23,23,0,0,0,7.91-1.63,32.12,32.12,0,0,0,5.45-2.93c2.14-1.39,4.26-2.82,6.41-4.19a23.73,23.73,0,0,1,5.43-2.64,9.82,9.82,0,0,1,8,.6,10.1,10.1,0,0,1,4.5,5.06,11.14,11.14,0,0,1-.49,10.36,11,11,0,0,1-3.88,3.8,23.67,23.67,0,0,1-6.62,2.73,51,51,0,0,1-8.23,1.44,46.23,46.23,0,0,1-6.76.17,43.4,43.4,0,0,1-11.94-2.25,47.13,47.13,0,0,1-12.45-6.27,50.28,50.28,0,0,1-7.9-7.1c-2.13-2.34-4.2-4.74-6.3-7.12l-1.18-1.33Zm13.23,11.14.36.34a42.14,42.14,0,0,0,10.16,6.5,43.06,43.06,0,0,0,15.43,4A46.93,46.93,0,0,0,626,515.75a18,18,0,0,0,5.92-2.77,7.93,7.93,0,0,0,2.75-3.3,9.1,9.1,0,0,0-1.27-9.62,7.21,7.21,0,0,0-7.71-2.68,16.44,16.44,0,0,0-4.37,1.77c-2,1.08-3.85,2.39-5.74,3.65a49.3,49.3,0,0,1-6.91,4.07,24.78,24.78,0,0,1-13.56,2,36.61,36.61,0,0,1-8.83-2.37l-1.64-.66Z"/><path class="cls-1" d="M612.76,520q-1.1,0-2.19-.06a43.9,43.9,0,0,1-12-2.26A47.92,47.92,0,0,1,586,511.4a50.61,50.61,0,0,1-7.94-7.13c-1.46-1.61-2.92-3.27-4.33-4.88-.65-.75-1.31-1.49-2-2.24-.39-.45-.79-.89-1.18-1.33l-.14-.16.26-.35.25.07.57.38A107.24,107.24,0,0,0,582.15,502a51.24,51.24,0,0,0,7.58,3.19,27.57,27.57,0,0,0,9.16,1.49,22.59,22.59,0,0,0,7.82-1.62,31.27,31.27,0,0,0,5.4-2.9l2.75-1.8q1.82-1.2,3.67-2.39a23.44,23.44,0,0,1,5.48-2.67,10.11,10.11,0,0,1,8.17.62,10.35,10.35,0,0,1,4.61,5.18,11.39,11.39,0,0,1-.51,10.58,11,11,0,0,1-4,3.89,23.69,23.69,0,0,1-6.68,2.76,49.66,49.66,0,0,1-8.27,1.45C615.84,520,614.3,520,612.76,520Zm-40.7-23.35.12.14,2,2.24c1.41,1.61,2.86,3.27,4.32,4.87a49.67,49.67,0,0,0,7.87,7.06,46.73,46.73,0,0,0,12.38,6.25,43.78,43.78,0,0,0,11.88,2.24,47.23,47.23,0,0,0,6.72-.18,50.64,50.64,0,0,0,8.19-1.43,23.49,23.49,0,0,0,6.55-2.7,10.64,10.64,0,0,0,3.79-3.72,10.91,10.91,0,0,0,.48-10.13,9.8,9.8,0,0,0-4.39-4.94,9.46,9.46,0,0,0-7.78-.58,22.65,22.65,0,0,0-5.37,2.61l-3.66,2.39-2.75,1.8a32.53,32.53,0,0,1-5.48,2.95,23.38,23.38,0,0,1-8,1.65,28.17,28.17,0,0,1-9.33-1.51,53.79,53.79,0,0,1-7.65-3.22A104.57,104.57,0,0,1,572.06,496.68Zm40.77,21.19q-1.41,0-2.82-.09a43.46,43.46,0,0,1-15.52-4,42,42,0,0,1-10.21-6.54A2.68,2.68,0,0,1,584,507l-.26-.25.74-1.23.75.31,1.09.44a36.6,36.6,0,0,0,8.78,2.35,24.66,24.66,0,0,0,13.42-2,48.76,48.76,0,0,0,6.87-4.05l1-.65c1.54-1,3.13-2.11,4.79-3a16.69,16.69,0,0,1,4.44-1.79,7.47,7.47,0,0,1,8,2.77,9.33,9.33,0,0,1,1.31,9.86,8.17,8.17,0,0,1-2.84,3.41,18.26,18.26,0,0,1-6,2.81A47.65,47.65,0,0,1,612.83,517.87ZM584.4,506.69l.2.19a42.15,42.15,0,0,0,10.1,6.46A43.07,43.07,0,0,0,610,517.28a46.93,46.93,0,0,0,15.86-1.77,17.69,17.69,0,0,0,5.84-2.73,7.67,7.67,0,0,0,2.67-3.2,8.83,8.83,0,0,0-1.23-9.36,7,7,0,0,0-7.47-2.59,16.19,16.19,0,0,0-4.3,1.74c-1.64.89-3.22,1.95-4.75,3l-1,.65a49,49,0,0,1-6.94,4.1,25.19,25.19,0,0,1-13.7,2,37.23,37.23,0,0,1-8.89-2.39l-1.1-.44-.35-.14Z"/><path class="cls-1" d="M618.37,513.63l-2.86-6.6-.67.26a1.56,1.56,0,0,1-.39.15.41.41,0,0,1-.3-.14s.05-.18.1-.26.11-.07.17-.09a56.61,56.61,0,0,0,7.4-4.07c1-.63,2.09-1.24,3.15-1.82a5.64,5.64,0,0,1,2-.71,4.28,4.28,0,0,1,3.67,1.26,5.34,5.34,0,0,1,.56,6.95,6.41,6.41,0,0,1-2.09,1.67,30.52,30.52,0,0,1-5.66,2.37c-1.84.6-3.7,1.13-5.56,1.68-.2.06-.47.21-.57-.08s.22-.32.41-.39Zm9.15-3.7a3.91,3.91,0,0,0,2.28-.7,4.5,4.5,0,0,0,1.78-5.12c-.7-2.39-3-4.09-5.75-2.91a4.52,4.52,0,0,0,1.69,8.73Zm-7.18-5.56c.26.6.51,1.18.75,1.76.79,1.83,1.57,3.67,2.36,5.51.17.39.18.4.58.25,1.05-.4,2.08-.81,3.12-1.22a3.69,3.69,0,0,0,.39-.2,5,5,0,0,1-4.47-2.69,5.29,5.29,0,0,1,.13-5.17Zm2.81,7.83-3.24-7.56-1.74,1,3.08,7.15Zm-5.41-6.31-1.78.93,2.9,6.69,1.91-.57Z"/><path class="cls-1" d="M627.69,498.81a7.88,7.88,0,0,0-3.12.8,46.83,46.83,0,0,0-5,2.69c-2.15,1.26-4.31,2.49-6.46,3.74l-.12.08c-.15.08-.32.12-.42-.05s0-.32.2-.41c.49-.27,1-.53,1.48-.81,2.44-1.43,4.86-2.87,7.3-4.28a20,20,0,0,1,4.29-2A6,6,0,0,1,632,500a7.22,7.22,0,0,1,2,3.45,7,7,0,0,1-2.52,7.71,21.89,21.89,0,0,1-6.2,3.16,58,58,0,0,1-7.56,1.89l-.56.11c-.18,0-.38,0-.4-.2s.13-.26.3-.29l1.81-.36a48.69,48.69,0,0,0,7-1.89,21.11,21.11,0,0,0,5.13-2.69,6.93,6.93,0,0,0-.09-11.1A5.44,5.44,0,0,0,627.69,498.81Z"/><path class="cls-1" d="M611.46,516.16A4.19,4.19,0,1,1,615.6,512,4.14,4.14,0,0,1,611.46,516.16Zm3.63-4.22a3.66,3.66,0,1,0-3.56,3.73A3.67,3.67,0,0,0,615.09,511.94Z"/><path class="cls-1" d="M594.1,511.71a5.06,5.06,0,0,1-.67.46c-.1.05-.25,0-.37,0s0-.29.09-.37a5.93,5.93,0,0,1,.65-.51l-.81-.15c-.16,0-.28-.1-.25-.28s.16-.22.32-.2l.82.1c-.17-.23-.29-.39-.4-.56s-.28-.32-.07-.49.35.06.48.21.23.29.4.52c.06-.33.07-.58.14-.81s.18-.18.27-.27c.07.11.19.21.19.32a5.36,5.36,0,0,1-.08.82l.65-.46c.13-.09.26-.14.38,0s0,.29-.08.4-.37.29-.64.49l.72.13c.18,0,.37.08.34.3s-.22.23-.4.2l-.73-.1.45.64c.09.14.17.29,0,.42s-.3,0-.4-.11-.29-.37-.48-.63c0,.31-.09.54-.12.77s-.09.32-.3.29-.2-.2-.19-.36S594.07,512,594.1,511.71Z"/><path class="cls-1" d="M606.09,512.86l-3-.43-5-.73c-.2,0-.52,0-.47-.31s.35-.2.55-.17l5.65.8,2.14.31.19,0c.17,0,.34.1.28.29S606.15,512.82,606.09,512.86Z"/><path class="cls-1" d="M597.47,512.73c0-.2.18-.28.43-.19.61.22,1.21.45,1.81.69l5.15,2a1,1,0,0,1,.34.15c.08.07.16.22.13.29s-.18.14-.29.15a.8.8,0,0,1-.31-.1l-6.86-2.66C597.69,513,597.49,513,597.47,512.73Z"/><path class="cls-1" d="M605,509.31c.24,0,.44,0,.44.22s-.19.25-.37.28l-3.84.46c-1,.12-2.09.26-3.14.37-.2,0-.46.14-.57-.16s.11-.29.51-.34l6-.71Z"/><path class="cls-1" d="M590.76,509.9l-.29-.14-5.17-2.65-.08-.05c-.17-.09-.37-.19-.24-.42s.3-.11.45,0l5.3,2.72a.52.52,0,0,1,.19.12.3.3,0,0,1,.06.25C591,509.79,590.84,509.84,590.76,509.9Z"/><path class="cls-1" d="M627.41,509a3.63,3.63,0,1,1,3.62-3.59A3.61,3.61,0,0,1,627.41,509Zm.07-6.73a3.09,3.09,0,0,0-3.13,3.07,3.1,3.1,0,1,0,3.13-3.07Z"/><path class="cls-1" d="M614.52,512a3.09,3.09,0,1,1-3.07-3.13A3.09,3.09,0,0,1,614.52,512Zm-5.66-.12a2.31,2.31,0,0,0,.37,1.46l1.47-1.11,0-.09Zm.66,1.87a2.14,2.14,0,0,0,1.31.75l.25-1.81-.09,0Zm2.61-1.4-.06.08,1.1,1.48a1.81,1.81,0,0,0,.71-1.31Zm0-.6,0,.1,1.8.25a2.2,2.2,0,0,0-.37-1.45Zm-1.31-.1-1.18-1.58a2.5,2.5,0,0,0-.77,1.31Zm2.44-1.39a1.88,1.88,0,0,0-1.27-.77l-.27,1.93Zm-2.12,1,.1,0,.26-1.79a1.78,1.78,0,0,0-1.43.36Zm.49,1.5-.11,0-.24,1.79a1.66,1.66,0,0,0,1.4-.41Z"/><path class="cls-1" d="M626.8,505l-.83-1.13-.2-.27c-.11-.15-.2-.32,0-.45s.29,0,.39.15l1.11,1.48c.07-.39.12-.69.16-1s.08-.6.13-.89.11-.33.3-.27a.39.39,0,0,1,.17.33c0,.42-.1.84-.16,1.26,0,.17,0,.34-.07.62l.73-.54c.26-.19.52-.41.8-.58a.4.4,0,0,1,.37,0c.14.13,0,.29-.09.39l-.94.72-.56.44,1.3.2a3.88,3.88,0,0,1,.61.1.41.41,0,0,1,.22.26c0,.16-.13.23-.29.21-.38,0-.75-.1-1.13-.15l-.8-.1,1,1.37c.12.16.37.36.1.55s-.38-.09-.5-.25c-.33-.42-.64-.85-1-1.37-.09.63-.17,1.15-.25,1.67,0,.21,0,.53-.3.5s-.2-.36-.18-.58c.06-.51.14-1,.22-1.66l-.85.64-.61.45c-.14.11-.29.24-.45.05s0-.34.17-.46l1-.74.45-.35-1.49-.23a2.34,2.34,0,0,1-.46-.09c-.09,0-.2-.19-.18-.26a.34.34,0,0,1,.27-.2c.29,0,.59.07.89.11l.92.14Z"/><path class="cls-1" d="M657.82,515.85l-.38.57A108.78,108.78,0,0,0,651.17,527a52.4,52.4,0,0,0-3.21,7.61,28,28,0,0,0-1.5,9.24,23.14,23.14,0,0,0,1.63,7.92,32.41,32.41,0,0,0,2.93,5.44c1.39,2.14,2.82,4.26,4.19,6.41a23.73,23.73,0,0,1,2.64,5.43,9.82,9.82,0,0,1-.6,8,10.12,10.12,0,0,1-5.06,4.51,11.17,11.17,0,0,1-10.36-.5,11,11,0,0,1-3.8-3.88,23.74,23.74,0,0,1-2.73-6.61,51.31,51.31,0,0,1-1.44-8.24,46.13,46.13,0,0,1-.17-6.75,43.47,43.47,0,0,1,2.25-12,47.13,47.13,0,0,1,6.27-12.45,50.73,50.73,0,0,1,7.1-7.9c2.34-2.13,4.74-4.2,7.12-6.3l1.33-1.18Zm-11.14,13.23c-.12.13-.23.24-.33.36a41.73,41.73,0,0,0-6.5,10.16,42.87,42.87,0,0,0-4,15.43,47,47,0,0,0,1.78,16,18.08,18.08,0,0,0,2.77,5.91,8,8,0,0,0,3.3,2.76,9.1,9.1,0,0,0,9.62-1.28,7.21,7.21,0,0,0,2.68-7.71,16.57,16.57,0,0,0-1.77-4.37c-1.08-2-2.39-3.85-3.65-5.74a49.3,49.3,0,0,1-4.07-6.91,24.75,24.75,0,0,1-2-13.55,36.57,36.57,0,0,1,2.37-8.84c.21-.54.43-1.07.66-1.64Z"/><path class="cls-1" d="M647.39,582.85a11.37,11.37,0,0,1-5.68-1.56,11.19,11.19,0,0,1-3.89-4,23.89,23.89,0,0,1-2.76-6.69,49.66,49.66,0,0,1-1.45-8.27,46.81,46.81,0,0,1-.17-6.8,44,44,0,0,1,2.26-12A47.7,47.7,0,0,1,642,531.05a50.67,50.67,0,0,1,7.13-7.95c1.63-1.48,3.31-3,4.93-4.37l2.19-1.93,1.48-1.31.42.3-.51.77a107.24,107.24,0,0,0-6.26,10.59,52.33,52.33,0,0,0-3.19,7.58,27.65,27.65,0,0,0-1.49,9.16,22.77,22.77,0,0,0,1.62,7.82,30.6,30.6,0,0,0,2.9,5.4c.6.93,1.21,1.85,1.81,2.77.8,1.21,1.6,2.42,2.38,3.65a23.63,23.63,0,0,1,2.67,5.48,10.11,10.11,0,0,1-.62,8.17,10.37,10.37,0,0,1-5.18,4.62A12.61,12.61,0,0,1,647.39,582.85Zm9.34-65.79-.14.12-2.19,1.92c-1.62,1.43-3.3,2.9-4.92,4.37a50.11,50.11,0,0,0-7.06,7.87,46.73,46.73,0,0,0-6.25,12.38,43.39,43.39,0,0,0-2.23,11.88,45.72,45.72,0,0,0,.17,6.72,49.94,49.94,0,0,0,1.43,8.19,23.61,23.61,0,0,0,2.7,6.55,10.72,10.72,0,0,0,3.72,3.79,10.91,10.91,0,0,0,10.13.48,9.8,9.8,0,0,0,4.94-4.39,9.46,9.46,0,0,0,.58-7.78A22.6,22.6,0,0,0,655,563.8c-.78-1.23-1.58-2.44-2.38-3.65-.6-.92-1.21-1.84-1.81-2.77a32.53,32.53,0,0,1-2.95-5.48,23.38,23.38,0,0,1-1.65-8,28.34,28.34,0,0,1,1.51-9.32,53.4,53.4,0,0,1,3.22-7.66A104.57,104.57,0,0,1,656.73,517.06Zm-9.09,63.66a10.52,10.52,0,0,1-4-.84,8.17,8.17,0,0,1-3.41-2.84,18.26,18.26,0,0,1-2.81-6,47.4,47.4,0,0,1-1.79-16,43.35,43.35,0,0,1,4-15.52,41.86,41.86,0,0,1,6.54-10.22l.22-.25.26-.27,1.23.74-.32.77c-.14.37-.29.72-.43,1.07a36.6,36.6,0,0,0-2.35,8.78,24.66,24.66,0,0,0,2,13.42,48.19,48.19,0,0,0,4.05,6.87l.66,1c1,1.53,2.1,3.12,3,4.79a16.48,16.48,0,0,1,1.79,4.43,7.47,7.47,0,0,1-2.77,8A9.35,9.35,0,0,1,647.64,580.72Zm-.92-51.32-.19.21a42.09,42.09,0,0,0-6.46,10.09,43.07,43.07,0,0,0-3.94,15.35,47,47,0,0,0,1.77,15.86,17.73,17.73,0,0,0,2.73,5.83,7.6,7.6,0,0,0,3.2,2.67,8.82,8.82,0,0,0,9.36-1.23,6.94,6.94,0,0,0,2.59-7.46,16.45,16.45,0,0,0-1.73-4.31c-.9-1.64-2-3.22-3-4.74l-.65-1a48.07,48.07,0,0,1-4.09-6.94,25.09,25.09,0,0,1-2.05-13.7,37.23,37.23,0,0,1,2.39-8.89c.14-.36.28-.71.43-1.07l.15-.38Z"/><path class="cls-1" d="M639.78,563.37l6.6-2.85c-.09-.25-.18-.46-.26-.67a1.63,1.63,0,0,1-.15-.4.41.41,0,0,1,.14-.3s.18.05.26.11.07.1.09.16a56.61,56.61,0,0,0,4.07,7.4c.63,1,1.24,2.09,1.82,3.15a5.69,5.69,0,0,1,.71,2,4.27,4.27,0,0,1-1.26,3.66,5.34,5.34,0,0,1-6.95.57,6.62,6.62,0,0,1-1.67-2.09,30.8,30.8,0,0,1-2.37-5.66c-.6-1.85-1.13-3.71-1.68-5.57-.06-.2-.21-.47.08-.57s.32.22.39.41S639.71,563.13,639.78,563.37Zm3.7,9.15a3.91,3.91,0,0,0,.7,2.28,4.49,4.49,0,0,0,5.12,1.78c2.4-.69,4.09-3,2.91-5.75a4.52,4.52,0,0,0-8.73,1.69Zm5.56-7.18-1.76.76-5.51,2.35c-.39.17-.4.18-.25.58.4,1.05.81,2.09,1.22,3.13,0,.1.11.2.21.38a5,5,0,0,1,2.68-4.47,5.29,5.29,0,0,1,5.17.13Zm-7.83,2.81,7.56-3.24-1-1.73-7.15,3.07Zm6.31-5.41-.93-1.77-6.69,2.89.57,1.91Z"/><path class="cls-1" d="M654.6,572.69a7.79,7.79,0,0,0-.8-3.11,46,46,0,0,0-2.69-5c-1.26-2.15-2.49-4.31-3.74-6.46l-.08-.12c-.08-.15-.12-.32.05-.42s.32,0,.41.2c.27.49.53,1,.81,1.49,1.43,2.43,2.87,4.85,4.28,7.29a20,20,0,0,1,2,4.29,6,6,0,0,1-1.4,6.14,7.29,7.29,0,0,1-3.45,2,7,7,0,0,1-7.71-2.52,21.88,21.88,0,0,1-3.16-6.2,58,58,0,0,1-1.89-7.56c0-.19-.08-.37-.11-.56s0-.37.2-.4.26.13.29.3l.36,1.81a47.59,47.59,0,0,0,1.9,7,21.45,21.45,0,0,0,2.68,5.13,6.59,6.59,0,0,0,7.77,2.36,6.72,6.72,0,0,0,3.33-2.46A5.39,5.39,0,0,0,654.6,572.69Z"/><path class="cls-1" d="M637.25,556.46a4.19,4.19,0,0,1,8.38-.05,4.19,4.19,0,0,1-8.38.05Zm4.22,3.63a3.66,3.66,0,1,0-3.73-3.56A3.67,3.67,0,0,0,641.47,560.09Z"/><path class="cls-1" d="M641.7,539.1a5.06,5.06,0,0,1-.46-.67c0-.09,0-.25,0-.37.13,0,.29,0,.37.09a5.93,5.93,0,0,1,.51.65c.06-.33.1-.57.15-.81s.1-.28.28-.25.22.16.2.32l-.1.82c.23-.17.39-.29.56-.4s.32-.28.49-.07-.06.35-.21.48-.29.23-.52.4a5.94,5.94,0,0,1,.81.15c.11,0,.18.17.27.26-.11.07-.21.19-.32.19a5.36,5.36,0,0,1-.82-.08l.46.66c.09.12.14.25,0,.37s-.29,0-.4-.08-.29-.37-.49-.63c0,.3-.09.5-.13.71s-.07.37-.3.35-.23-.22-.2-.41.06-.43.1-.73l-.64.45c-.13.1-.29.18-.41,0s0-.3.1-.4l.63-.48-.77-.12c-.16,0-.32-.09-.29-.3s.2-.2.36-.19Z"/><path class="cls-1" d="M640.55,551.09c.15-1.08.29-2.06.43-3,.24-1.68.48-3.36.73-5,0-.2,0-.52.31-.47s.2.35.17.55c-.26,1.88-.53,3.77-.8,5.65-.1.71-.21,1.43-.31,2.15l0,.18c0,.18-.1.34-.29.28S640.59,551.15,640.55,551.09Z"/><path class="cls-1" d="M640.68,542.47c.2,0,.28.19.19.43-.22.61-.45,1.21-.69,1.81q-1,2.58-2,5.15a.88.88,0,0,1-.15.34c-.07.08-.22.17-.29.14a.42.42,0,0,1-.15-.3.8.8,0,0,1,.1-.31c.89-2.28,1.77-4.57,2.66-6.86C640.42,542.7,640.45,542.49,640.68,542.47Z"/><path class="cls-1" d="M644.1,550c0,.24,0,.44-.22.44s-.25-.19-.27-.37c-.16-1.28-.31-2.56-.47-3.84-.12-1-.26-2.09-.37-3.14,0-.2-.14-.46.16-.57s.29.11.34.51l.72,6C644,549.41,644.07,549.76,644.1,550Z"/><path class="cls-1" d="M643.51,535.76l.14-.29q1.33-2.58,2.65-5.17a.35.35,0,0,1,.05-.08c.09-.17.19-.37.42-.24s.11.3,0,.45l-2.72,5.3a.41.41,0,0,1-.12.19.36.36,0,0,1-.25.07C643.62,536,643.57,535.84,643.51,535.76Z"/><path class="cls-1" d="M644.37,572.41A3.63,3.63,0,1,1,648,576,3.61,3.61,0,0,1,644.37,572.41Zm6.73.07a3.09,3.09,0,0,0-3.07-3.13,3.1,3.1,0,1,0-.06,6.19A3.09,3.09,0,0,0,651.1,572.48Z"/><path class="cls-1" d="M641.43,559.52a3.09,3.09,0,1,1,3.13-3.07A3.09,3.09,0,0,1,641.43,559.52Zm.12-5.66a2.31,2.31,0,0,0-1.46.37l1.11,1.47.09,0Zm-1.87.67a2,2,0,0,0-.74,1.3l1.8.25,0-.09Zm1.4,2.6-.08-.06-1.48,1.1a1.81,1.81,0,0,0,1.31.71Zm.6,0-.1,0-.25,1.79a2.15,2.15,0,0,0,1.45-.37Zm.1-1.31,1.58-1.18a2.41,2.41,0,0,0-1.31-.76Zm1.39,2.44a1.89,1.89,0,0,0,.77-1.26l-1.93-.27Zm-1-2.11,0,.09,1.79.26a1.79,1.79,0,0,0-.36-1.43Zm-1.5.48,0-.11-1.79-.24a1.65,1.65,0,0,0,.41,1.4Z"/><path class="cls-1" d="M648.44,571.8l1.13-.83.27-.2c.15-.11.32-.2.45,0s0,.29-.15.39l-1.48,1.11,1,.17c.3,0,.6.07.89.12s.33.11.27.3a.39.39,0,0,1-.33.17c-.42,0-.84-.1-1.26-.16l-.62-.07.54.73c.2.27.41.52.58.8a.37.37,0,0,1,0,.37c-.13.14-.28,0-.39-.09l-.71-.94-.45-.56c-.08.49-.14.9-.2,1.31a4,4,0,0,1-.1.6.34.34,0,0,1-.25.22c-.17,0-.24-.13-.22-.29,0-.38.1-.75.15-1.13s.06-.46.1-.8l-1.37,1c-.16.12-.35.37-.55.11s.1-.38.25-.51l1.37-1-1.67-.25c-.21,0-.53,0-.5-.3s.36-.2.58-.18c.51.06,1,.14,1.66.23l-.64-.86-.45-.6c-.11-.15-.24-.3-.05-.45s.34,0,.46.16l.74,1,.35.45c.09-.55.16-1,.23-1.49a2.34,2.34,0,0,1,.09-.46c0-.09.19-.2.27-.18a.36.36,0,0,1,.19.27c0,.3-.07.59-.11.89s-.09.62-.14.93Z"/><polygon class="cls-1" points="528.16 474.64 466.71 626.33 448.25 626.33 388.56 474.64 422.02 474.64 463.6 581.88 501.64 474.64 528.16 474.64"/><path class="cls-1" d="M812.71,509.38c-8.39-15.88-22.06-26.48-40.64-31.49-8.09-2.19-20.27-3.25-37.22-3.25h-41.8V624.8h37c14.9,0,25.57-.56,32.61-1.7,19.38-3.22,34.52-12,45-26.1,9.45-12.67,14.24-28.63,14.24-47.43C821.91,534.39,818.81,520.86,812.71,509.38Zm-50.4,93.79c-6.46,2.52-16.45,3.8-29.7,3.8h-9.08V492.47h12.24c8.67,0,15.93.73,21.63,2.19a37.89,37.89,0,0,1,17.22,9c9.87,9.27,14.88,24.83,14.88,46.25,0,11.69-1.62,21.71-4.8,29.76C780,591.45,772.62,599.15,762.31,603.17Z"/><rect class="cls-1" x="841.7" y="474.64" width="30.47" height="150.16"/><polygon class="cls-1" points="1013.46 474.64 959.75 561.43 959.75 624.8 929.28 624.8 929.28 563.83 876.16 474.64 911.95 474.64 950 540.16 985.43 474.64 1013.46 474.64"/><path class="cls-1" d="M1276.24,609a17.68,17.68,0,0,1-5.81,13.58,17.05,17.05,0,0,1-11.83,4.36,16.77,16.77,0,0,1-13.66-6.33,17.71,17.71,0,0,1-4.07-11.5,17.46,17.46,0,0,1,5.59-13,17,17,0,0,1,12.24-4.56,17.33,17.33,0,0,1,12.66,5.17A16.7,16.7,0,0,1,1276.24,609Z"/><path class="cls-1" d="M1399.41,474.64v91.14c0,12.08-1.17,21.29-3.58,28.13a46.08,46.08,0,0,1-24.43,27.5c-8.52,4.08-18.48,6.14-29.59,6.14-11.57,0-21.92-2.11-30.78-6.28a46.6,46.6,0,0,1-20.85-18.44,53.44,53.44,0,0,1-7-21.81,169.41,169.41,0,0,1-.84-17.59V474.64h30.47v93.28c0,12.35,1.82,21.79,5.39,28.06a24.21,24.21,0,0,0,9.84,9.19,35.76,35.76,0,0,0,16.38,3.84,38.39,38.39,0,0,0,16.34-3.57,29.13,29.13,0,0,0,11.62-9.24c4.46-6.15,6.71-16.39,6.71-30.42V474.64Z"/><polygon class="cls-1" points="1531.44 605.57 1531.44 624.8 1409.31 624.8 1409.31 610.69 1488.5 492.82 1412.27 493.87 1412.27 474.64 1528.68 474.64 1528.68 488.44 1449.09 606.63 1531.44 605.57"/><path class="cls-1" d="M1145.87,368.42l-105.06,65.31V396.62l134.77-84.17V561.7h-29.71Z"/><path class="cls-1" d="M1113,562.06h-29.46V440.77l29.46-18Z"/><rect class="cls-1" x="1040.81" y="591.12" width="179.26" height="29.42"/></svg>